<svg width="250" height="289" viewBox="0 0 250 289" fill="none" xmlns="http://www.w3.org/2000/svg">
<path d="M124.88 0L250 72.1849V216.554L208.781 240.334L166.786 216.817L208.53 192.733V96.487L125.117 48.3638L41.8637 96.487V192.733L41.8672 192.735V240.755L0 216.554V72.1848L124.88 0Z" fill="white"/>
<path d="M125.117 240.857L83.7337 216.936L83.4943 264.817L124.88 288.739L166.666 264.632L125.12 240.857L125.117 240.857Z" fill="white"/>
<path d="M82.7719 120.549L83.2531 169.394L125.12 193.936V144.851L82.7719 120.549Z" fill="#5A5A89"/>
<path d="M166.988 120.308L125.12 144.851V193.936L166.747 169.394L166.988 120.308Z" fill="#383874"/>
<path d="M82.7719 120.549L125.12 144.851L166.988 120.308L125.12 96.2464L82.7719 120.549Z" fill="#8676FF"/>
</svg>
