<svg width="250" height="289" viewBox="0 0 250 289" fill="none" xmlns="http://www.w3.org/2000/svg">
<path d="M124.88 0.217529L250 72.4024V216.772L208.781 240.552L166.786 217.034L208.53 192.951V96.7046L125.117 48.5813L41.8637 96.7045V192.951L41.8672 192.953V240.973L0 216.772V72.4023L124.88 0.217529Z" fill="#606071"/>
<path d="M125.117 241.074L83.7337 217.153L83.4943 265.034L124.88 288.957L166.666 264.849L125.12 241.074L125.117 241.074Z" fill="#606071"/>
<path d="M82.7719 120.766L83.2531 169.611L125.12 194.154V145.069L82.7719 120.766Z" fill="#5A5A89"/>
<path d="M166.988 120.526L125.12 145.069V194.154L166.747 169.611L166.988 120.526Z" fill="#383874"/>
<path d="M82.7719 120.766L125.12 145.069L166.988 120.526L125.12 96.4639L82.7719 120.766Z" fill="#8676FF"/>
</svg>
